<svg xmlns="http://www.w3.org/2000/svg" width="41.944" height="41.566" fill="none"><path fill="#4694DC" fill-rule="evenodd" d="M38.52.58c-.18-.19-.4-.33-.65-.43a2.03 2.03 0 0 0-1.53 0c-.24.1-.46.24-.65.43l-1.74 1.73a6.025 6.025 0 0 0-6.83 1.16L5.9 24.51l11.32 11.23 21.21-21.05a5.918 5.918 0 0 0 1.18-6.77l1.74-1.73a1.966 1.966 0 0 0 0-2.81L38.52.58Zm-8.53 16.88L17.22 30.13l-5.66-5.62 12.77-12.66 5.66 5.61Zm3.63-3.61 1.98-1.96c.19-.18.34-.4.44-.64.1-.24.15-.5.15-.76s-.05-.52-.15-.76c-.1-.24-.25-.46-.44-.65l-2.82-2.8a1.992 1.992 0 0 0-1.42-.58c-.26 0-.52.05-.76.15-.25.1-.47.24-.65.43l-1.98 1.96 5.65 5.62v-.01Z"/><path fill="#4694DC" d="m0 41.56 4.24-15.43 11.31 11.22L0 41.56Z"/></svg>