<svg xmlns="http://www.w3.org/2000/svg" width="45.833" height="45.467" fill="none"><path fill="#4694DC" fill-rule="evenodd" d="M22.91 12.4c-2.76 0-5.41 1.08-7.36 3.02a10.286 10.286 0 0 0-3.06 7.31c0 2.74 1.1 5.37 3.06 7.31 1.95 1.93 4.6 3.02 7.36 3.02 2.76 0 5.41-1.09 7.37-3.02 1.95-1.94 3.05-4.57 3.05-7.31 0-2.74-1.1-5.37-3.05-7.31a10.47 10.47 0 0 0-7.37-3.02Zm-6.25 10.33c0 1.64.66 3.22 1.83 4.38a6.242 6.242 0 0 0 4.42 1.82c1.66 0 3.25-.65 4.42-1.82a6.177 6.177 0 0 0 1.83-4.38 6.2 6.2 0 0 0-1.83-4.39 6.275 6.275 0 0 0-4.42-1.81c-1.66 0-3.25.65-4.42 1.81a6.2 6.2 0 0 0-1.83 4.39Z"/><path fill="#4694DC" d="M35.41 8.26c-.55 0-1.08.22-1.47.61-.39.38-.61.91-.61 1.46a2.082 2.082 0 0 0 2.08 2.07c.55 0 1.08-.22 1.47-.61.4-.39.61-.91.61-1.46 0-.55-.21-1.08-.61-1.46-.39-.39-.92-.61-1.47-.61Z"/><path fill="#4694DC" fill-rule="evenodd" d="M8.33 0C6.12 0 4 .87 2.44 2.42A8.194 8.194 0 0 0 0 8.26V37.2c0 2.19.87 4.29 2.44 5.84a8.357 8.357 0 0 0 5.89 2.42H37.5c2.21 0 4.32-.87 5.89-2.42a8.235 8.235 0 0 0 2.44-5.84V8.26c0-2.19-.88-4.29-2.44-5.84A8.374 8.374 0 0 0 37.5 0H8.33ZM37.5 4.13H8.33c-1.11 0-2.17.43-2.95 1.21-.78.77-1.22 1.83-1.22 2.92V37.2c0 1.09.44 2.14 1.22 2.92.78.77 1.84 1.21 2.95 1.21H37.5c1.1 0 2.16-.44 2.94-1.21.78-.78 1.22-1.83 1.22-2.92V8.26c0-1.09-.44-2.15-1.22-2.92a4.154 4.154 0 0 0-2.94-1.21Z"/></svg>