<svg xmlns="http://www.w3.org/2000/svg" width="41.282" height="35.909" fill="none"><path fill="#4694DC" d="M30.5 0H0v5.04h30.5V0ZM30.5 10.08H0v5.04h30.5v-5.04ZM0 20.17h20.33v5.04H0v-5.04Z"/><path fill="#4694DC" fill-rule="evenodd" d="M25.1 19.86a7.538 7.538 0 0 0-2.21 4.71c-.16 1.78.33 3.55 1.37 5.01a7.613 7.613 0 0 0 4.31 2.96c1.74.45 3.59.27 5.21-.5l3.9 3.86 3.6-3.56-3.9-3.87c.77-1.61.94-3.44.49-5.17a7.548 7.548 0 0 0-2.98-4.26 7.651 7.651 0 0 0-5.04-1.37c-1.8.16-3.48.93-4.75 2.19Zm3.6 7.13c.23.24.51.42.82.55.31.12.64.19.98.19.33 0 .66-.07.97-.19.31-.13.59-.32.82-.55.24-.23.43-.51.55-.82a2.428 2.428 0 0 0 0-1.93c-.12-.3-.31-.58-.55-.82a2.54 2.54 0 0 0-1.8-.73c-.67 0-1.32.26-1.79.73a2.53 2.53 0 0 0-.75 1.79c0 .67.27 1.31.75 1.78Z"/></svg>